PathFileType	4	(X/Y/Z)	C:/Users/beibeiliu/ov580/test_trc\sequence.22_training_dense_left.trc
DataRate	CameraRate	NumFrames	NumMarkers	Units	OrigDataRate	OrigDataStartFrame	OrigNumFrames
120	120	10	19	mm	120	203	324
Frame#	Time	ThumbCMC			ThumbMCP			ThumbIP			ThumbTip			IndexMCP			IndexPIP			IndexTip			MiddleMCP			MiddlePIP			MiddleTip			RingMCP			RingPIP			RingTip			PinkyMCP			PinkyPIP			PinkyTip			BackHand1			BackHand2			BackHand3	
		X0	Y0	Z0	X1	Y1	Z1	X2	Y2	Z2	X3	Y3	Z3	X4	Y4	Z4	X5	Y5	Z5	X6	Y6	Z6	X7	Y7	Z7	X8	Y8	Z8	X9	Y9	Z9	X10	Y10	Z10	X11	Y11	Z11	X12	Y12	Z12	X13	Y13	Z13	X14	Y14	Z14	X15	Y15	Z15	X16	Y16	Z16	X17	Y17	Z17	X18	Y18	Z18	
202	1.68333	-238.175	35.676	30.0601	-237.959	66.9961	23.272	-240.497	88.3189	18.1403	-241.433	109.404	14.397	-223.453	62.9776	-27.3501	-223.096	92.1565	-32.1884	-218.514	113.351	-24.4881	-203.67	70.7907	-17.5724	-208.637	90.4654	8.56375	-208.509	64.8408	25.6417	-189.718	71.7468	-6.23569	-197.673	81.8433	15.9141	-203.657	56.4094	27.5118	-175.23	69.0561	4.45491	-185.394	76.0668	22.1937	-195.387	51.7818	31.0536	-189.519	24.5845	2.62131	-194.585	5.23339	25.1318	-215.464	16.1261	9.15319	
203	1.69167	-239.333	37.7246	26.8269	-242.715	69.3509	22.6488	-244.714	90.1705	15.2626	-241.277	106.553	8.49879	-224.118	60.5502	-30.2646	-227.922	85.1745	-36.2759	-222.851	110.672	-30.1568	-205.307	68.3275	-20.1183	-210.276	89.987	1.98879	-214.73	65.903	21.0904	-188.01	69.9453	-8.3899	-200.585	79.0741	15.7401	-202.485	53.1711	26.7645	-176.029	64.1127	-0.467974	-188.995	75.2553	19.1902	-197.231	54.7192	26.5144	-187.533	23.9736	2.03675	-189.822	5.49752	27.296	-219.466	15.2945	10.1176	
204	1.7	-236.561	36.6654	26.7473	-242.619	67.3886	20.786	-242.657	85.2804	14.1823	-243.432	107.71	2.62403	-230.704	59.9405	-33.6595	-225.941	83.6432	-40.0294	-225.668	109.483	-35.1832	-204.927	66.434	-23.4996	-208.487	89.2736	-4.93097	-210.199	65.2465	18.497	-192.962	67.5698	-12.7847	-201.076	78.6226	11.7814	-203.32	57.2717	23.9631	-177.147	62.9768	-4.19831	-188.859	75.2628	15.0143	-196.098	53.5301	27.0315	-192.798	21.1462	2.50173	-195.191	6.88841	26.9724	-218.684	12.3201	12.1121	
205	1.70833	-241.366	38.8061	26.7383	-242.713	65.923	21.6772	-243.578	87.2257	6.76327	-247.247	105.241	-0.386244	-230.789	52.8906	-32.6651	-233.534	79.6055	-43.2869	-228.689	103.415	-42.6364	-210.443	63.614	-26.9967	-208.518	87.5097	-7.97384	-212.785	63.4045	15.7176	-191.34	68.9669	-15.65	-200.243	79.1121	8.9307	-207.89	57.4895	20.1099	-181.729	65.3257	-7.77759	-190.26	74.4665	11.5933	-201.043	54.7502	22.1045	-193.975	18.5511	1.53196	-191.398	7.47097	28.423	-218.241	12.2822	13.3004	
206	1.71667	-240.347	39.5676	26.1122	-241.897	66.8548	18.427	-243.103	85.261	4.76003	-248.662	105.54	-7.24114	-231.158	50.7047	-34.7291	-235.14	77.2937	-46.4506	-232.928	100.36	-47.6027	-213.252	62.5663	-28.5024	-209.303	84.9025	-10.2876	-215.814	64.7915	12.9601	-193.349	63.2204	-18.1109	-202.981	78.3257	3.86789	-205.095	52.9959	18.5597	-181.26	58.4744	-9.43193	-192.814	72.7786	7.94612	-202.678	49.2889	19.4113	-197.067	17.3897	1.57363	-194.011	5.84097	30.517	-223.363	13.6697	12.4872	
207	1.725	-240.804	39.1368	28.8226	-242.514	67.6074	18.3883	-246.468	85.4647	2.38108	-250.805	102.626	-6.82621	-236.83	49.2989	-35.9931	-238.702	71.0831	-47.227	-234.69	94.4381	-50.3111	-213.946	59.8799	-30.2455	-211.842	83.5177	-14.7479	-215.284	63.2842	12.5766	-200.338	61.3562	-20.63	-200.239	76.7672	0.323109	-208.425	55.5135	15.6872	-180.704	58.8481	-11.932	-190.839	72.4747	6.25099	-198.479	48.9922	18.7456	-199.805	16.2962	3.545	-198.279	5.27755	27.9774	-224.377	12.151	17.8811	
208	1.73333	-242.083	40.9113	31.5305	-240.988	66.7635	15.2729	-247.475	86.1189	1.9423	-248.909	104.078	-12.0482	-238.313	46.3692	-35.8435	-242.8	68.9825	-49.9949	-236.351	90.7368	-54.3183	-216.465	54.0609	-31.8665	-214.29	80.6171	-17.6793	-215.655	60.6005	10.8369	-197.589	56.1865	-23.5708	-206.085	73.6824	-1.96848	-209.276	52.0376	14.8462	-187.549	53.9067	-16.4826	-194.596	68.3955	2.59397	-201.302	52.2341	15.3741	-202.609	14.3983	5.81612	-200.148	5.40401	30.7445	-225.751	12.2596	18.0717	
209	1.74167	-242.39	43.7735	31.6177	-241.042	68.6513	17.916	-244.535	87.3323	-2.55798	-245.414	101.494	-13.8183	-243.748	43.6514	-32.2725	-242.101	65.3433	-50.0082	-234.787	88.5829	-58.0012	-218.1	51.3509	-33.5702	-213.038	79.1068	-20.1124	-220.245	63.8046	8.10706	-204.043	51.7856	-26.0401	-205.743	73.5389	-8.8555	-211.312	52.6053	12.7361	-186.613	49.5663	-18.319	-191.433	66.7585	-1.3809	-202.647	46.9227	13.8761	-206.106	11.6523	4.82476	-208.028	6.03717	27.9506	-230.041	11.4696	20.7754	
210	1.75	-243.498	47.0698	28.7718	-237.63	71.4556	14.5861	-239.017	86.2743	-3.91207	-242.482	103.339	-17.7551	-250.756	46.7908	-34.486	-247.388	66.6946	-51.9477	-236.93	83.8915	-60.6006	-223.509	51.1179	-35.3146	-216.231	75.7031	-26.7122	-218.54	59.9209	5.9662	-204.294	49.07	-28.2196	-205.943	69.6287	-14.0659	-211.773	54.3992	9.3216	-188.816	42.3211	-22.4078	-192.751	63.3669	-6.45286	-205.795	48.1649	10.6275	-214.041	9.12897	7.47433	-209.181	5.49642	34.1897	-236.982	15.4415	19.2653	
211	1.75833	-240.452	49.943	30.7659	-233.937	72.5047	9.47834	-235.572	89.7496	-6.64705	-234.815	101.292	-17.8676	-254.545	48.9338	-33.7761	-247.921	63.3995	-50.7509	-236.576	83.5057	-64.8496	-226.559	46.8937	-35.6484	-215.571	72.7139	-29.9452	-217.56	59.3073	3.35717	-207.562	47.0191	-32.2099	-204.072	67.4691	-14.4594	-212.025	51.2782	8.58762	-194.836	39.3519	-26.3408	-194.207	58.001	-13.5286	-206.559	49.3936	7.52034	-217.836	7.60738	4.41762	-214.682	4.60055	30.4275	-244.455	17.724	22.5493	
